<svg xmlns="http://www.w3.org/2000/svg" width="48" height="48" viewBox="0 0 100 100">
  <defs>
    <linearGradient id="g" x1="0%" y1="0%" x2="100%" y2="100%">
      <stop offset="0%" stop-color="#ffd700"/>
      <stop offset="50%" stop-color="#ffbf00"/>
      <stop offset="100%" stop-color="#e6a800"/>
    </linearGradient>
  </defs>
  <rect width="100" height="100" rx="16" fill="#0d0b0a"/>
  <path d="M28 18c0-5 3-9 9-10 4-.8 8 1.5 10 5l2 3-8 5-2-3c-1-1.5-2-2-3.5-1.5S33 19 33 22c0 4 3 6 10 10 8 5 13 10 13 18 0 8-5 14-12 16-8 2-15-1-19-7l-2-3 8-5 2 3c2 3 4 4.5 7 3.5s4-3.5 4-6.5c0-5-3-7-10-11-7.5-4.5-13-10-13-18 0-5 2-10 7-13Z" fill="url(#g)"/>
</svg>
